<svg width="37" height="42" viewBox="0 0 37 42" fill="none" xmlns="http://www.w3.org/2000/svg">
<path d="M37 11.8001C37.0022 13.56 36.6067 15.298 35.8427 16.8864C35.0786 18.4748 33.9654 19.8732 32.5849 20.9788L0.838571 3.0994C0.717153 3.03063 0.604565 2.94756 0.503258 2.85199C0.344172 2.69707 0.217748 2.51231 0.131349 2.30847C0.0449489 2.10463 0.000299579 1.88578 5.60315e-08 1.66466C-5.68907e-05 1.4461 0.0432945 1.22967 0.127579 1.02772C0.211863 0.825777 0.335429 0.642276 0.491222 0.487696C0.647014 0.333116 0.831982 0.210485 1.03556 0.126806C1.23914 0.0431263 1.45735 3.76441e-05 1.67772 7.74071e-10L25.108 7.74071e-10C26.6699 -1.7749e-05 28.2164 0.305223 29.6593 0.898278C31.1022 1.49133 32.4131 2.36057 33.5171 3.45633C35.7475 5.66964 37.0003 8.6709 37 11.8001Z" fill="#4A575F"/>
<path d="M37 30.1568C37.0007 31.7066 36.6934 33.2414 36.0958 34.6733C35.4986 36.1054 34.6226 37.4067 33.5181 38.5029C32.4138 39.5986 31.1027 40.4679 29.6596 41.0611C28.2166 41.6542 26.6699 41.9597 25.1078 41.96H1.67803C1.34598 41.9566 1.02243 41.8554 0.748404 41.6694C0.474512 41.4835 0.262441 41.221 0.13906 40.9154C0.0152899 40.6097 -0.0141381 40.2745 0.0545092 39.9522C0.122677 39.6299 0.285756 39.335 0.523079 39.1048C0.6178 39.0109 0.723815 38.9289 0.838736 38.8606L13.3326 31.8245L32.5826 20.9812C33.9627 22.0867 35.0758 23.4846 35.8402 25.0723C36.6046 26.6601 37.0009 28.3974 37 30.1568Z" fill="#FBCE2B"/>
<path d="M32.5849 20.9789L13.3324 31.8246L0.839165 38.8607C0.719006 38.9268 0.607996 39.0081 0.508911 39.1025C5.27295 34.2535 7.93643 27.7492 7.93045 20.9789C7.93949 14.2075 5.27668 7.70138 0.511513 2.85205C0.612999 2.94766 0.725783 3.03074 0.847403 3.09946L32.5849 20.9789Z" fill="#4A575F"/>
</svg>
